<svg id="Layer_1" data-name="Layer 1" xmlns="http://www.w3.org/2000/svg" viewBox="0 0 3484.3 808.24">
  <defs>
    <style>
      .cls-1 {
        fill: #ed1c24;
      }

      .cls-2, .cls-3 {
        font-size: 110px;
        fill: #231f20;
        font-family: Garamond;
        font-weight: 700;
      }

      .cls-2 {
        letter-spacing: 55px;
      }

      .cls-3 {
        letter-spacing: 99px;
      }
    </style>
  </defs>
  <title>logo</title>
  <g>
    <path d="M3111.2,2424.25c-6.31-1-12.63-1.91-18.91-3-23.93-4.28-45.92-12.64-62.69-31.17-19.22-21.25-20.71-50.27-3.12-72.54,12.39-15.68,29.42-24.2,47.53-31.1,2.71-1,5.48-1.93,8.23-2.89l0-1.34c-2.12-.31-4.22-0.8-6.35-0.9-15-.72-29.22-4.24-41.19-13.77a45.06,45.06,0,0,1-17.46-31.67c-2.88-27.74,12.26-44.69,34.23-57.46,5.34-3.11,11.26-5.22,15-6.94-4.59-5.34-10-11.16-14.87-17.38-12.61-16-16.95-34.07-14.59-54.41,4-34.17,33-60.38,66.16-66.4,25.85-4.69,50.81-3,74.18,10,5.3,3,10.11,6.79,14,9.43,6.27-8,11.69-16.33,18.57-23.26,14.42-14.52,41.58-12.18,52.76,3.85,9.78,14,3.85,35-11.31,39.93-7.49,2.45-15.74,0-20-6-4.7-6.63-4.26-14.5,1.22-21.55,1.42-1.83,2.84-3.66,4.35-5.43,2.63-3.09,3.86-7.08,1.13-9.86a13.49,13.49,0,0,0-9.57-3.69c-17.91,1.59-26.79,17.35-30.39,30.54-0.3,1.09.57,2.83,1.41,3.84,23,27.93,23.85,67.63,1.35,95.76-12.63,15.79-29.77,24.62-49.41,28.35-25.61,4.86-50.45,2.56-74-9.44-1.09-.56-2.57-1.13-3.63-0.84-15.42,4.26-29.72,10.34-38.56,24.83-6.46,10.6-4.75,23.88,4.1,29.89,6.36,4.32,13.81,5.59,21.27,5.65,28.49,0.23,57,.15,85.48.22,19.8,0.05,39.43,1.29,58.12,8.81,24.7,9.94,42.07,26.59,48.19,53.21,4.05,17.64,2.17,35-4.83,51.58-17.14,40.49-49.14,62.62-91,72.16-5.42,1.24-10.93,2-16.4,3.05h-29Zm22.47-140.53,0,0.48q-17.49,0-35,0a15.31,15.31,0,0,0-4.44.34c-16,5-27.12,15.31-33.15,31-6.59,17.17-7.6,35-4.7,52.85,2.55,15.71,10,28.74,23.92,37.77,14.39,9.33,30.48,11.5,46.87,11.92a113.7,113.7,0,0,0,39.59-5.9c17.51-5.95,32.59-15.42,42.78-31.4,10-15.72,13.1-32.76,10.89-51.26-3.11-26-19.3-41.2-43.92-44.12C3162.37,2283.76,3148,2284.23,3133.67,2283.72Zm-48.26-170.33c0.69,7.71,1.28,19.49,2.92,31.13,1.43,10.19,4.48,20.25,12.28,27.51,18.51,17.21,53.44,12.56,61.75-16.85,4-14.21,5-28.61,5-43.22,0-16.43-.14-32.79-5.07-48.7-4-13-11.87-22.49-25.47-25.69-19.77-4.65-39.3,3.57-45.9,25.56C3086.39,2078.31,3086.22,2093.81,3085.41,2113.39Z" transform="translate(-603.15 -1791)"/>
    <path d="M2632.26,2268.27a61.11,61.11,0,0,1,7.34-.92c11.5-.1,23-0.25,34.49.07,4,0.11,5.77-1.11,7-5q25.45-79.33,51.19-158.56,28.58-88.4,57.14-176.81c5.84-18.06,11.7-36.11,17.8-54.08,1.05-3.11,3.32-5.81,5-8.69h2c2.61,6,5.75,11.73,7.74,17.88q37.47,115.78,74.66,231.65c16.12,50,32.33,100,48.3,150.13,1,3.07,2.44,3.36,5,3.35,13.5,0,27,0,40.49,0,1.5,0,3.16-.27,4.43.29,1.11,0.49,2.43,2,2.45,3,0,0.85-1.68,2-2.82,2.52-0.8.4-2,.09-3,0.09H2810c-1,0-2.14.29-3-.1-1-.48-2.45-1.44-2.56-2.33a3.64,3.64,0,0,1,1.81-3,13.11,13.11,0,0,1,4.88-.55q30.74,0,61.48,0h5.83c-5-15.72-9.67-30.78-14.44-45.83q-9.92-31.33-19.91-62.64c-0.7-2.17-.76-4.69-4.55-4.67-38.48.16-77,.1-116,0.1l-36.93,113h24.15c10,0,20,0,30,0a13,13,0,0,1,4.84.75,3.24,3.24,0,0,1,1.39,2.74,3.65,3.65,0,0,1-2.09,2.29c-1,.41-2.3.13-3.46,0.13q-51.74,0-103.47,0a35.29,35.29,0,0,1-5.74-.94Q2632.26,2270.27,2632.26,2268.27Zm208.58-120.13-55.89-178-1.48.1-58,177.87h115.39Z" transform="translate(-603.15 -1791)"/>
    <path d="M4056.09,2139.29c-2.2,3.51-5.73,3.29-9.19,3.29H3901.09c0,12.33-.56,24.15.13,35.89,1,16.83,2,33.71,6.81,50.06,5.1,17.29,14.35,31.32,31.49,38.55,14.75,6.22,30.21,6,45.36,1.89,26-7.11,45.62-22.72,58.64-46.44,0.8-1.45,1.3-3.2,2.44-4.28,0.94-.89,2.62-1,4-1.44,0.42,1.5,1.67,3.42,1.15,4.44a109.18,109.18,0,0,1-77.22,57.57A97.35,97.35,0,0,1,3928,2276c-45.17-13.94-72.42-44.8-82.81-90.4-8-35-3.31-68.55,16-99.18,18.91-29.92,45.6-48.83,81.11-54.18,25.53-3.84,49.34.37,70.7,15.55,21.75,15.46,34,37,39.93,62.57,1.22,5.25,2.06,10.6,3.07,15.9v13Zm-156.1-3c33.32,0,65.76,0,98.2,0,3.68,0,4-2.19,3.91-4.89-0.3-8.63-.58-17.26-1-25.88-0.7-14.26-3.05-28.24-8.12-41.61-6.91-18.24-20.82-28.15-38.82-27.66-21.65.58-34.5,10.6-42.74,31-4.64,11.46-7,24-9.09,36.28C3900.57,2114.15,3900.72,2125,3900,2136.32Z" transform="translate(-603.15 -1791)"/>
    <path d="M3587.83,2043.28c-10,0-19.66,0-29.33,0-2,0-4.71.84-4.75-2.88s2.61-3,4.66-3c24.46,0,48.93,0,73.39-.06,4.3,0,6.21,1.78,5.92,6.56-0.7,11.76-1.24,23.53-1.82,35.3a2.72,2.72,0,0,0,1,2.14c0.63-1.53,1.29-3,1.88-4.6,7.51-19.56,19.41-34.48,38.38-41.46,15.6-5.74,31.53-5.8,47.37-1.13,28.14,8.3,47.82,27.89,61.66,55,12.52,24.53,16.95,51.13,14.7,78.67-3,36.57-16.33,68.08-43.58,91.19-18.48,15.67-39.42,22.9-63.3,20.39-24.14-2.53-42.05-14.44-53.62-37.53a17.22,17.22,0,0,0-1.88-2.51v167.84h18.69c5.69,0,11.39-.19,17.07.12,1.61,0.09,4.4,1.48,4.5,2.51,0.27,2.89-2,3.41-4.4,3.37-8-.11-16,0-24,0h-95.08c-1.08,0-2.29.35-3.2-.08a25.09,25.09,0,0,1-3.94-2.85c1.26-1,2.49-2.83,3.78-2.89,6.45-.3,12.92-0.14,19.38-0.14h16.48V2043.28Zm51.25,116.9h0q0,29.48,0,59a19.06,19.06,0,0,0,.5,5.92c4.61,13.57,11.07,25.76,22.09,34.61,22.18,17.82,51.9,13.86,67.42-13.53,11.43-20.18,14.69-42.81,16.64-65.76a306.5,306.5,0,0,0-.76-57.78c-1.91-18.37-5.24-36.26-13.08-52.82-15.88-33.54-50.24-39.12-74.23-14.26-11.94,12.37-18.12,28.58-18.48,46.69C3638.78,2121.53,3639.07,2140.86,3639.07,2160.18Z" transform="translate(-603.15 -1791)"/>
    <path d="M3428.7,2239.07c-1,1.65-1.95,2.9-2.63,4.28-10.74,21.72-27.8,34.82-52.23,36.51-22.42,1.55-44-1.78-62.59-15.83-15.33-11.6-22.81-27.39-24.13-46.51-1.12-16.17,2.27-30.83,12.18-43.84,11.17-14.65,26.43-22.91,43.84-27.26,26.58-6.64,53.07-6,79.21,2.71a16.71,16.71,0,0,0,2.84.37c0-14.16,0-28.13,0-42.1,0-12.76.53-25.51-2.87-38.09-5.1-18.87-18.83-31.64-40.51-32.09-10.34-.22-20.53.25-30.09,4.83-13.21,6.33-17.07,18.16-10.89,31.35,3.05,6.51,6.27,13.45,7,20.44,1.51,14.23-8.14,25.44-21.76,27.34-12.5,1.74-24.5-7.13-27.78-20.46-4.11-16.71,2.95-29.95,13.69-41.52,16.27-17.53,36.68-26.65,60.63-27.89,21.26-1.11,42,1,61.71,9.64,24.32,10.64,38.56,29.28,43.71,55a103.27,103.27,0,0,1,2,19.71c0.17,43.65.06,87.29,0.14,130.94a52.18,52.18,0,0,0,1.21,11.33c2.41,10.67,10.61,15.28,21.68,11.88,4.64-1.42,8.84-4.26,13.39-6.07,1.43-.57,3.37.14,5.07,0.26-0.63,1.45-.85,3.47-2,4.25-13.87,9.79-29.38,13-46.12,11.25-15.65-1.63-28-8.83-36.4-22.1C3433.69,2252.07,3431.73,2245.84,3428.7,2239.07Zm-3.51-46.19c0-10.83-.07-21.66,0-32.49,0-3-.53-4.74-3.74-6a91.87,91.87,0,0,0-37.46-6.13c-13.68.7-24.46,6.43-31,18.92-5.43,10.32-7.19,21.46-8.18,33-1.31,15.28,0,30.1,5.16,44.56,9,25.22,37.31,30.78,53.86,18.8,13.42-9.72,20.1-23.45,21.21-39.68C3425.76,2213.58,3425.19,2203.21,3425.19,2192.88Z" transform="translate(-603.15 -1791)"/>
  </g>
  <g>
    <path d="M1142.66,2420.6c-6.31-1-12.63-1.91-18.91-3-23.93-4.28-45.92-12.64-62.69-31.17-19.22-21.25-20.71-50.27-3.12-72.54,12.39-15.68,29.42-24.2,47.53-31.1,2.71-1,5.48-1.93,8.23-2.89l0-1.34c-2.12-.31-4.22-0.8-6.35-0.9-15-.72-29.22-4.24-41.19-13.77a45.06,45.06,0,0,1-17.46-31.67c-2.88-27.74,12.26-44.69,34.23-57.46,5.34-3.11,11.26-5.22,15-6.94-4.59-5.34-10-11.16-14.87-17.38-12.61-16-16.95-34.07-14.59-54.41,4-34.17,33-60.38,66.16-66.4,25.85-4.69,50.81-3,74.18,10,5.3,3,10.11,6.79,14,9.43,6.27-8,11.69-16.33,18.57-23.26,14.42-14.52,41.58-12.18,52.76,3.85,9.78,14,3.85,35-11.31,39.93-7.49,2.45-15.74,0-20-6-4.7-6.63-4.26-14.5,1.22-21.55,1.42-1.83,2.84-3.66,4.35-5.43,2.63-3.09,3.86-7.08,1.13-9.86a13.49,13.49,0,0,0-9.57-3.69c-17.91,1.59-26.79,17.35-30.39,30.54-0.3,1.09.57,2.83,1.41,3.84,23,27.93,23.85,67.63,1.35,95.76-12.63,15.79-29.77,24.62-49.41,28.35-25.61,4.86-50.45,2.56-74-9.44-1.09-.56-2.57-1.13-3.63-0.84-15.42,4.26-29.72,10.34-38.56,24.83-6.46,10.6-4.75,23.88,4.1,29.89,6.36,4.32,13.81,5.59,21.27,5.65,28.49,0.23,57,.15,85.48.22,19.8,0.05,39.43,1.29,58.12,8.81,24.7,9.94,42.07,26.59,48.19,53.21,4.05,17.64,2.17,35-4.83,51.58-17.14,40.49-49.14,62.62-91,72.16-5.42,1.24-10.93,2-16.4,3.05h-29Zm22.47-140.53,0,0.48q-17.49,0-35,0a15.31,15.31,0,0,0-4.44.34c-16,5-27.12,15.31-33.15,31-6.59,17.17-7.6,35-4.7,52.85,2.55,15.71,10,28.74,23.92,37.77,14.39,9.33,30.48,11.5,46.87,11.92a113.7,113.7,0,0,0,39.59-5.9c17.51-5.95,32.59-15.42,42.78-31.4,10-15.72,13.1-32.76,10.89-51.26-3.11-26-19.3-41.2-43.92-44.12C1193.83,2280.11,1179.43,2280.57,1165.13,2280.07Zm-48.26-170.33c0.69,7.71,1.28,19.49,2.92,31.13,1.43,10.19,4.48,20.25,12.28,27.51,18.51,17.21,53.44,12.56,61.75-16.85,4-14.21,5-28.61,5-43.22,0-16.43-.14-32.79-5.07-48.7-4-13-11.87-22.49-25.47-25.69-19.77-4.65-39.3,3.57-45.9,25.56C1117.85,2074.65,1117.68,2090.15,1116.87,2109.74Z" transform="translate(-603.15 -1791)"/>
    <path d="M663.72,2264.62a61.11,61.11,0,0,1,7.34-.92c11.5-.1,23-0.25,34.49.07,4,0.11,5.77-1.11,7-5q25.45-79.33,51.19-158.56,28.58-88.4,57.14-176.81c5.84-18.06,11.7-36.11,17.8-54.08,1.05-3.11,3.32-5.81,5-8.69h2c2.61,6,5.75,11.73,7.74,17.88q37.47,115.78,74.66,231.65c16.12,50,32.33,100,48.3,150.13,1,3.07,2.44,3.36,5,3.35,13.5,0,27,0,40.49,0,1.5,0,3.16-.27,4.43.29,1.11,0.49,2.43,2,2.45,3,0,0.85-1.68,2-2.82,2.52-0.8.4-2,.09-3,0.09H841.49c-1,0-2.14.29-3-.1-1-.48-2.45-1.44-2.56-2.33a3.64,3.64,0,0,1,1.81-3,13.11,13.11,0,0,1,4.88-.55q30.74,0,61.48,0H910c-5-15.72-9.67-30.78-14.44-45.83q-9.92-31.33-19.91-62.64c-0.7-2.17-.76-4.69-4.55-4.67-38.48.16-77,.1-116,0.1l-36.93,113h24.15c10,0,20,0,30,0a13,13,0,0,1,4.84.75,3.24,3.24,0,0,1,1.39,2.74,3.65,3.65,0,0,1-2.09,2.29c-1,.41-2.3.13-3.46,0.13q-51.74,0-103.47,0a35.29,35.29,0,0,1-5.74-.94Q663.72,2266.62,663.72,2264.62ZM872.3,2144.49l-55.89-178-1.48.1-58,177.87H872.3Z" transform="translate(-603.15 -1791)"/>
    <path d="M2087.55,2135.64c-2.2,3.51-5.73,3.29-9.19,3.29H1932.55c0,12.33-.56,24.15.13,35.89,1,16.83,2,33.71,6.81,50.06,5.1,17.29,14.35,31.32,31.49,38.55,14.75,6.22,30.21,6,45.36,1.89,26-7.11,45.62-22.72,58.64-46.44,0.8-1.45,1.3-3.2,2.44-4.28,0.94-.89,2.62-1,4-1.44,0.42,1.5,1.67,3.42,1.15,4.44a109.18,109.18,0,0,1-77.22,57.57,97.35,97.35,0,0,1-45.81-2.78c-45.17-13.94-72.42-44.8-82.81-90.4-8-35-3.31-68.55,16-99.18,18.91-29.92,45.6-48.83,81.11-54.18,25.53-3.84,49.34.37,70.7,15.55,21.75,15.46,34,37,39.93,62.57,1.22,5.25,2.06,10.6,3.07,15.9v13Zm-156.1-3c33.32,0,65.76,0,98.2,0,3.68,0,4-2.19,3.91-4.89-0.3-8.63-.58-17.26-1-25.88-0.7-14.26-3.05-28.24-8.12-41.61-6.91-18.24-20.82-28.15-38.82-27.66-21.65.58-34.5,10.6-42.74,31-4.64,11.46-7,24-9.09,36.28C1932,2110.5,1932.18,2121.37,1931.45,2132.67Z" transform="translate(-603.15 -1791)"/>
    <path d="M1601.58,2039.63c-10.82,0-21.29,0-31.76,0-2.17,0-5.1.84-5.14-2.88s2.83-3,5.05-3c26.49,0,53,0,79.47-.06,4.66,0,6.72,1.78,6.41,6.56-0.76,11.76-1.34,23.54-2,35.31a2.63,2.63,0,0,0,1.11,2.14c0.68-1.53,1.4-3.05,2-4.6,8.13-19.56,21-34.5,41.56-41.47,16.89-5.74,34.14-5.8,51.29-1.13,30.47,8.3,51.78,27.9,66.77,55,13.56,24.54,18.35,51.15,15.92,78.7-3.23,36.59-17.68,68.11-47.19,91.23-20,15.68-42.69,22.91-68.54,20.4-26.14-2.53-45.54-14.45-58.06-37.55a17.4,17.4,0,0,0-2-2.51v167.9h20.24c6.16,0,12.34-.19,18.49.12,1.75,0.09,4.76,1.48,4.87,2.51,0.3,2.89-2.13,3.41-4.77,3.38-8.66-.11-17.33,0-26,0h-103c-1.17,0-2.48.35-3.46-.08a27.22,27.22,0,0,1-4.27-2.85c1.36-1,2.69-2.83,4.1-2.89,7-.3,14-0.14,21-0.14h17.84v-364Zm55.49,116.94h0q0,29.49,0,59c0,2-.12,4.12.54,5.92,5,13.57,12,25.77,23.92,34.62,24,17.83,56.2,13.86,73-13.53,12.38-20.19,15.9-42.83,18-65.79a283.38,283.38,0,0,0-.82-57.8c-2.07-18.38-5.68-36.27-14.17-52.84-17.19-33.55-54.4-39.14-80.38-14.27-12.92,12.37-19.62,28.59-20,46.71C1656.76,2117.91,1657.08,2137.24,1657.08,2156.57Z" transform="translate(-603.15 -1791)"/>
    <path d="M1460.16,2235.42c-1,1.65-1.95,2.9-2.63,4.28-10.74,21.72-27.8,34.82-52.23,36.51-22.42,1.55-44-1.78-62.59-15.83-15.33-11.6-22.81-27.39-24.13-46.51-1.12-16.17,2.27-30.83,12.18-43.84,11.17-14.65,26.43-22.91,43.84-27.26,26.58-6.64,53.07-6,79.21,2.71a16.71,16.71,0,0,0,2.84.37c0-14.16,0-28.13,0-42.1,0-12.76.53-25.51-2.87-38.09-5.1-18.87-18.83-31.64-40.51-32.09-10.34-.22-20.53.25-30.09,4.83-13.21,6.33-17.07,18.16-10.89,31.35,3.05,6.51,6.27,13.45,7,20.44,1.51,14.23-8.14,25.44-21.76,27.34-12.5,1.74-24.5-7.13-27.78-20.46-4.11-16.71,2.95-29.95,13.69-41.52,16.27-17.53,36.68-26.65,60.63-27.89,21.26-1.11,42,1,61.71,9.64,24.32,10.64,38.56,29.28,43.71,55a103.27,103.27,0,0,1,2,19.71c0.17,43.65.06,87.29,0.14,130.94a52.18,52.18,0,0,0,1.21,11.33c2.41,10.67,10.61,15.28,21.68,11.88,4.64-1.42,8.84-4.26,13.39-6.07,1.43-.57,3.37.14,5.07,0.26-0.63,1.45-.85,3.47-2,4.25-13.87,9.79-29.38,13-46.12,11.25-15.65-1.63-28-8.83-36.4-22.1C1465.15,2248.41,1463.19,2242.19,1460.16,2235.42Zm-3.51-46.19c0-10.83-.07-21.66,0-32.49,0-3-.53-4.74-3.74-6a91.87,91.87,0,0,0-37.46-6.13c-13.68.7-24.46,6.43-31,18.92-5.43,10.32-7.19,21.46-8.18,33-1.31,15.28,0,30.1,5.16,44.56,9,25.22,37.31,30.78,53.86,18.8,13.42-9.72,20.1-23.45,21.21-39.68C1457.22,2209.93,1456.65,2199.56,1456.65,2189.23Z" transform="translate(-603.15 -1791)"/>
  </g>
  <g>
    <path class="cls-1" d="M2250,2068.82c-10.45,11.68-6.93,25.85-8.64,38.86-2.27,17.27,2.18,34.39-.13,52-2.7,20.6-1.16,41.75-1.44,62.67-0.37,27.75-.6,55.5-1.17,83.24-0.19,9.26-1.23,18.51-1.84,27.76-0.07,1.06-.29,2.55.29,3.15,6.8,7.11.89,14.52,1.11,21.77,0.61,19.79-3.74,40.84,4.84,59,5.54,11.71,7.25,18.61-2.74,27.71-6.93,6.31-7.52,16.08-3.78,24.24,5.43,11.86,1,23.25.63,34.82-0.45,13.94-2.39,27.94-1.53,41.79,0.82,13.24,10.37,19.06,23.4,18.61,19.59-.68,39.22-0.33,58.83-0.58,24.19-.3,48.38-1.09,72.57-1,12.54,0,25.07,1.87,37.62,2a24.14,24.14,0,0,0,13.35-4c8.9-6.24,11-5.44,20.19-.91,7.52,3.73,16.78,4.48,25.39,5.33,7.15,0.71,14.47-.67,21.71-0.54,10.89,0.2,17-3.71,18.72-14.64,2.29-14.5,3.49-29.18,5.13-43.79a3.75,3.75,0,0,0-.22-2.38c-8.85-11.76-3.92-25.27-2.93-37.37,1.24-15.22,1.29-29.95-1.15-44.9-0.4-2.46.59-5.3,1.47-7.78,4.64-13.16,7.3-26.49,4.44-40.46a5.4,5.4,0,0,1-.1-2.42c6-21.42-1.65-43.41,2.72-64.89a7.75,7.75,0,0,0,.1-4c-6.91-18.18-2.35-37.27-4.21-55.88-1.48-14.82,3-30.39.49-44.9-3.78-22.24,3.48-43.37,2.66-65.16-0.94-25-.43-50-0.51-75a38,38,0,0,1,.49-8c1.4-6.5.33-11.95-4.12-17.31-1.83-2.21-2.38-7.19-1.17-9.85,2.43-5.33,1.14-8.65-2.93-11.95-4.81-3.9-9.51-7.94-14.21-12s-4.51-7.79,1.14-10.3a23.87,23.87,0,0,1,8.62-1.62c9.14-.36,13.19-4,13.68-13.15,0.19-3.47.47-7.32-.77-10.41-2.78-6.92-2-12.45,1.95-19,2.22-3.71.88-9.8,0.51-14.77-1-13.08-1.44-26.28-3.74-39.15-1.78-10-5.44-18.77-.12-29.53,3.77-7.62,2.19-17.78,3.59-26.72,0.48-3.1,2.73-5.92,4.18-8.87,2.6,2.34,6.06,4.24,7.54,7.15s1.32,6.76,1.21,10.18c-0.38,11.13-2.92,22.38,3.27,32.94,1.11,1.89.93,4.69,0.88,7.07-0.32,18.26-.58,36.52-1.24,54.77-0.37,10.21-.3,20.66-2.55,30.52-2.71,11.91,1.43,22.32,3.81,33.27,0.59,2.7,1.54,6.45.26,8.24-6,8.44-4,18-4.43,27.1-0.73,13.85-.46,27.75-0.63,41.63,0,1.62-.24,3.23-0.24,4.85,0,22.64.21,45.27,0.06,67.91-0.16,24.48-.23,48.94,3,73.29,0.45,3.42,0,7-.15,10.46-1.07,19.78-2.58,39.54-3.2,59.34q-1.09,34.69-.91,69.42c0.1,20.34,1.22,40.67,1.47,61,0.15,12.09-.67,24.19-0.8,36.28-0.13,11.8.32,23.61,0,35.4-0.43,16.92-1.06,33.84-2.1,50.73-0.68,11.11-15.37,26.73-26.34,26.84-29.85.31-59.7,5.42-89.58,0.32-2.86-.49-5.91.18-8.87,0.16q-28.85-.14-57.71-0.35a9.3,9.3,0,0,0-2.42-.08c-26,7.3-52.21-1.58-78.45.94-14.28,1.37-29.32-1.93-43.6-5-11.18-2.44-17-13.15-17.19-24.64-0.36-23.62-1.74-47.24-1.44-70.84,0.41-32.57-3.33-65.24,3-97.74a36.85,36.85,0,0,0-5.89-28.7,8.75,8.75,0,0,1-1.35-6.51,100.68,100.68,0,0,1,5.85-15.73c2.61-5.52,3.6-10.63-.2-16a8.2,8.2,0,0,1-1.11-4.63c0.56-27.21,2.47-54.46,1.37-81.6-0.7-17.24,4.67-34.8-2.28-51.89a22.34,22.34,0,0,1-.71-13.56c5.79-20.33,2.88-40.84,2.29-61.32a3.29,3.29,0,0,1,.1-1.6c8.6-14.86,1.28-30.45,1.79-45.65s-1.62-30.56-2.57-45.84a45.42,45.42,0,0,1-.14-5.62c1.41-22.68,3.64-45.34,4.1-68,0.48-23.82-1.32-47.68-1-71.51,0.21-15.73,2.07-31.47,3.83-47.14,1.06-9.49,7.91-14.73,17.64-16,12.24-1.62,24.35-4.39,36.62-5.63a345.52,345.52,0,0,1,36.95-1.6c29.78,0.2,59.58.35,89.33,1.65,17.36,0.76,35.1-4,52.11,2.92a3.69,3.69,0,0,0,2.36.38c16-6.24,31.92.68,47.89,0.43,5.45-.09,11.08,3,16.36,5.23,1.3,0.56,2.49,4,2,5.43s-3.17,2.66-5,2.94c-2.32.34-4.79-.63-7.2-0.61-8.81.09-17.61,0.35-26.42,0.56-4.3.1-8.59,0.33-12.89,0.36-8.85,0-17.84-1.13-25.76,4.64a7.94,7.94,0,0,1-6.05.77c-20.17-5.78-40.9-4.74-61.48-5.24-12.83-.31-25.72-0.76-38.51,0-14.63.92-29.15,3.48-43.77,4.62a24.41,24.41,0,0,1-13.46-2.81c-12.41-7.25-24.49-5.14-36.37.35-6.09,2.82-7.85,8.15-7.7,15.41,0.16,7.95-2.74,15.94-4.15,23.94-0.57,3.21-1.72,6.78-.88,9.67,1.63,5.58,3.7,11.36,7,16,4.95,7,9.1,6.54,15.09.33,1.72-1.79,4.11-2.93,6.19-4.38a82.72,82.72,0,0,1,4,7.45,14.62,14.62,0,0,1,1.39,6.24c-0.16,2.47-.73,5.3-2.19,7.12-0.59.74-4.26-.27-6-1.31-9.62-5.58-19.8-.93-21.79,10.49-3.28,18.87-4.72,37.72-2.79,57,1.33,13.24-.75,26.8-1,40.23-0.24,14.93.15,29.87-.2,44.8C2240.12,2057.34,2240,2057.83,2250,2068.82Z" transform="translate(-603.15 -1791)"/>
    <path class="cls-1" d="M2495.67,2538.52c-9.06-5-5.19-10.94-4.9-16.19,0.14-2.55,1.37-6.41.18-7.44-7.91-6.84-5.59-15.7-5.61-24.13-0.08-38.62-.2-77.25-0.17-115.87q0.18-219.19.38-438.38c0-7.78-.8-15.58-1.57-23.34a11.13,11.13,0,0,0-2.68-5.62c-7.89-9.3-18.46-15-28.85-20.9-1.89-1.07-4.75-.56-7.15-0.56q-56.31,0-112.62,0c-13.77,0-25.82,12.2-33.3,23.53-8.44,12.77-5.38,25.32-5.41,37.85q-0.52,272.8-.24,545.59c0,6.75.29,13.53-.2,20.25-0.26,3.58-1.8,7.1-2.95,10.59a80.57,80.57,0,0,1-3.39,8.75,34.58,34.58,0,0,1-3.16,4.71c-1.4-1.43-4.05-2.9-4-4.29,0.45-15.08-5.66-29-5.6-44.43,0.75-187.19.49-374.37,0.44-561.56,0-5.77-.15-11.26,4.87-15.5a6,6,0,0,0,1.52-5.07c-2-7.82,2.94-12.06,7.23-17.52,7.73-9.84,18.76-14.45,28.72-20.78,1.81-1.15,4.65-.91,7-0.92,13.78,0,27.55.05,41.33,0.07a16.83,16.83,0,0,0,16.5-19.24c-1-6.65,4.2-11.32,9.85-7.92s11,7.68,10.48,15.8c-0.68,11.28-.31,11.38,10.81,11.28,10-.09,20,0.63,30-0.17,24.69-2,38.79,14.3,53.43,29.91-1.88,9.37,6.31,16.58,6.33,24.84q0.4,264.16-.06,528.32c0,21.61.59,43.24-.32,64.81C2502.19,2522.68,2498.2,2530.22,2495.67,2538.52Z" transform="translate(-603.15 -1791)"/>
    <path class="cls-1" d="M2400.22,2294.34c11.93,0.26,24.45.78,37,.68,5.76,0,8.34-3.61,8-9.66-0.48-9.31-2-19.2,9-25.31,5.49,3.82,9.9,8.14,9.85,16.31-0.25,40.51,0,81-.29,121.52,0,3.89-2.22,7.89-3.88,11.63-2.74,6.17-6.92,11.89-8.58,18.3-2.15,8.3-6.26,13.16-14.74,14.4a10,10,0,0,0-4.4,1.89,52.13,52.13,0,0,1-34.73,10.94c-11.52-.5-23-1.07-34.56-1.61a4,4,0,0,1-1.6,0c-6.31-3.72-12.2-8.66-19-11-8-2.71-12.11-6.91-14.27-15.18-1.72-6.58-6.48-12.31-9.52-18.6-1.45-3-2.88-6.44-2.9-9.69-0.21-40.23-.37-80.46.1-120.69,0.06-5,2.88-10.71,6.08-14.79,5.53-7.06,9.22-5.17,13,2.81,3.47,7.34,6.2,14.34,6.9,22.52,0.2,2.35,5.54,5.73,8.8,6.07,8.28,0.87,16.71.24,25.08,0.3,5.83,0,8.12-2.9,8.11-8.55q-0.14-77.36-.06-154.73c0-6.53-2.48-9.41-9.07-9.22-7.82.24-15.65,0.22-23.47,0-7.33-.2-11,3.71-10.12,10.37,1.45,10.87-6.19,16.1-12.53,22-4,3.71-12.42-2.53-12.88-9.59-0.31-4.83.27-9.71,0.26-14.57-0.09-36.72-.38-73.45-0.14-110.17,0-4.38,3-8.69,4.34-13.12,2.12-6.91,5-13,11-17.77,10.3-8.1,20.59-14.63,34.62-14.19,16.42,0.51,32.88-.47,49.33-0.77a7.87,7.87,0,0,1,3.16.43c15.24,6.52,27.66,16.74,38.1,29.45,1,1.25,1.25,3.5,1.16,5.26-0.27,5.26.15,9.89,4.46,14,1.74,1.65,2,5.46,2,8.29,0.13,32.67.28,65.35-.12,98-0.06,5.25-2.8,10.46-4.31,15.69q-1.53,5.28-3.09,10.55a12.25,12.25,0,0,1-11.55-12.47c-0.06-4,0-8.1.37-12.13,0.51-6.3-2.8-9-8.53-9.12-9.17-.18-18.36-0.23-27.53,0-6.43.17-8.52,2.68-7.94,10.14,1.34,17.16.88,34.47,1,51.72,0.15,28.89.27,57.79,0.12,86.68C2402.19,2278.23,2401.06,2285.1,2400.22,2294.34Zm-49.12,134.57c2.83,0.89,7.49,1.06,10.07,3.46,4.84,4.51,10,5.76,16.2,5.51,7-.28,14.05.14,21.07-0.12,7.4-.27,14.93-0.26,22.12-1.75a30.84,30.84,0,0,0,13.84-6.93c4.33-3.91,10.07-9.35,10.24-14.29,1-31,.65-62.11.79-93.17,0-7.23-4.21-8.85-10.45-8.8-27.76.24-55.53,0.52-83.29,0.31-7.47-.06-10.51,1.93-10.47,9.36,0.17,28.33.26,56.66,0.5,85a15.15,15.15,0,0,0,1.57,6.1C2345.57,2418.49,2348.17,2423.25,2351.09,2428.91Zm84.61-425.65c-5-2.54-9.22-4.84-13.59-6.81a17.51,17.51,0,0,0-6.77-1.8c-17-.12-34-0.13-51,0.11-2.44,0-4.95,1.34-7.27,2.39-3.56,1.61-7,3.48-10.47,5.3-6.29,3.31-12.31,6.9-12.31,15.26,0,26.46.15,52.92-.12,79.38-0.06,6.07,3.68,7.92,8,7.91,24.52-.08,49-0.71,73.55-1a128.22,128.22,0,0,1,18.53.77c7.9,1.06,10.88-1,10.89-9.15q0.08-35.23,0-70.47a16.64,16.64,0,0,0-1.3-7C2441.18,2012.87,2438.16,2007.76,2435.71,2003.26Z" transform="translate(-603.15 -1791)"/>
  </g>
  <text class="cls-2" transform="translate(66.26 763.27)">ACUPUNCTURE</text>
  <text class="cls-3" transform="translate(2373.52 763.27)">HERBS</text>
</svg>
